<svg width="142" height="32" viewBox="0 0 142 32" fill="none" xmlns="http://www.w3.org/2000/svg">
<path d="M22.7895 17.4883H28.9744C31.7215 17.4883 33.9477 15.2745 33.9477 12.5429V4.03833L22.7895 17.4883Z" fill="url(#paint0_linear_276_482)"/>
<path d="M21.8642 12.7971C20.9962 11.749 20.8029 10.3538 21.2575 9.15259C19.1529 12.37 18.5534 16.6499 20.4468 21.008C21.5349 23.5101 23.5393 25.5139 26.0537 26.6048C28.8276 27.8095 31.5693 28.016 34.0318 27.4785L21.8642 12.7971Z" fill="url(#paint1_linear_276_482)"/>
<path d="M21.603 18.958C21.1198 19.483 20.7207 21.1665 21.1771 22.3659C19.9422 20.4778 19.2246 18.2266 19.2246 15.8082C19.2246 9.15264 24.6489 3.75879 31.3421 3.75879C32.2369 3.75879 33.1103 3.85489 33.9496 4.03818L21.603 18.958Z" fill="url(#paint2_linear_276_482)"/>
<path d="M59.0998 27.0879H42V4.06567H58.9996V7.64971H45.7045V13.8657H58.4717V17.286H45.7045V23.4682H59.0998V27.0861V27.0879Z" fill="#2C2C2C"/>
<path d="M74.1954 10.8744H77.5026V27.088H74.2616L74.0969 24.4578C73.5905 25.4437 72.8013 26.2 71.7329 26.7268C70.6627 27.2535 69.5782 27.5169 68.4758 27.5169C66.0276 27.5383 64.0214 26.7926 62.4573 25.28C60.8913 23.7674 60.1093 21.6621 60.1093 18.9661C60.1093 16.2701 60.9092 14.2681 62.5074 12.7661C64.1055 11.2642 66.117 10.5132 68.5438 10.5132C69.7124 10.5132 70.804 10.7766 71.8188 11.3033C72.8335 11.8301 73.5941 12.5419 74.1005 13.4406L74.199 10.8744H74.1954ZM65.0343 15.0671C64.0196 16.0423 63.5131 17.3414 63.5131 18.9643C63.5131 20.5873 64.0196 21.8917 65.0343 22.8776C66.049 23.8635 67.3053 24.3582 68.805 24.3582C69.775 24.3582 70.6412 24.1607 71.4018 23.7656C72.1624 23.3705 72.735 22.8562 73.1216 22.2191C73.5082 21.5838 73.7945 20.888 73.9824 20.1299C74.1703 19.3736 74.1703 18.612 73.9824 17.845C73.7945 17.078 73.5082 16.3768 73.1216 15.7398C72.735 15.1045 72.1624 14.5884 71.4018 14.1933C70.6412 13.7983 69.775 13.6007 68.805 13.6007C67.3053 13.6007 66.049 14.0883 65.0343 15.0635V15.0671Z" fill="#2C2C2C"/>
<path d="M92.8915 10.8743V12.4527L84.6897 23.7654H92.9577V27.0879H79.464V25.7069L87.8984 13.9654H80.0277V10.8743H92.8933H92.8915Z" fill="#2C2C2C"/>
<path d="M96.3651 4.26293C97.0702 3.91236 97.7771 3.91236 98.4822 4.26293C99.1873 4.6135 99.5399 5.22745 99.5399 6.10478C99.5399 6.9821 99.1873 7.60139 98.4822 7.96264C97.7771 8.32389 97.0702 8.32389 96.3651 7.96264C95.66 7.60139 95.3074 6.9821 95.3074 6.10478C95.3074 5.22745 95.66 4.6135 96.3651 4.26293ZM95.7029 10.8082V27.0876H99.1086V10.8082H95.7029Z" fill="#2C2C2C"/>
<path d="M116.36 12.9613C117.937 14.5736 118.724 16.5845 118.724 18.9958C118.724 21.4071 117.948 23.4412 116.393 25.0303C114.837 26.6195 112.794 27.4149 110.258 27.4149C107.722 27.4149 105.716 26.6195 104.173 25.0303C102.63 23.4412 101.857 21.4285 101.857 18.9958C101.857 16.5632 102.634 14.5451 104.189 12.9453C105.744 11.3455 107.767 10.5447 110.258 10.5447C112.749 10.5447 114.784 11.3508 116.36 12.9613ZM106.637 15.2143C105.723 16.2446 105.265 17.5063 105.265 18.9958C105.265 20.4853 105.718 21.7363 106.621 22.7454C107.525 23.7544 108.738 24.258 110.26 24.258C111.781 24.258 112.999 23.7544 113.914 22.7454C114.828 21.7363 115.287 20.4871 115.287 18.9958C115.287 17.5045 114.812 16.2713 113.864 15.2303C112.915 14.1892 111.715 13.6678 110.26 13.6678C108.805 13.6678 107.554 14.1839 106.637 15.2143Z" fill="#2C2C2C"/>
<defs>
<linearGradient id="paint0_linear_276_482" x1="30.313" y1="17.3085" x2="27.0134" y2="6.0765" gradientUnits="userSpaceOnUse">
<stop stop-color="#FF9002"/>
<stop offset="0.57" stop-color="#E93D00"/>
<stop offset="1" stop-color="#960B08"/>
</linearGradient>
<linearGradient id="paint1_linear_276_482" x1="34.0318" y1="18.4561" x2="19.3068" y2="18.4561" gradientUnits="userSpaceOnUse">
<stop stop-color="#FF9002"/>
<stop offset="0.57" stop-color="#E93D00"/>
<stop offset="1" stop-color="#960B08"/>
</linearGradient>
<linearGradient id="paint2_linear_276_482" x1="26.5871" y1="22.3659" x2="26.5871" y2="3.75879" gradientUnits="userSpaceOnUse">
<stop stop-color="#F4D65E"/>
<stop offset="0.57" stop-color="#E5B32E"/>
<stop offset="1" stop-color="#F6822B"/>
</linearGradient>
</defs>
</svg>
