<svg width="4" height="16" viewBox="0 0 4 16" fill="none" xmlns="http://www.w3.org/2000/svg">
<path d="M2 8.83337C2.46024 8.83337 2.83334 8.46028 2.83334 8.00004C2.83334 7.5398 2.46024 7.16671 2 7.16671C1.53977 7.16671 1.16667 7.5398 1.16667 8.00004C1.16667 8.46028 1.53977 8.83337 2 8.83337Z" stroke="#98A2B3" stroke-width="1.66667" stroke-linecap="round" stroke-linejoin="round"/>
<path d="M2 3.00004C2.46024 3.00004 2.83334 2.62694 2.83334 2.16671C2.83334 1.70647 2.46024 1.33337 2 1.33337C1.53977 1.33337 1.16667 1.70647 1.16667 2.16671C1.16667 2.62694 1.53977 3.00004 2 3.00004Z" stroke="#98A2B3" stroke-width="1.66667" stroke-linecap="round" stroke-linejoin="round"/>
<path d="M2 14.6667C2.46024 14.6667 2.83334 14.2936 2.83334 13.8334C2.83334 13.3731 2.46024 13 2 13C1.53977 13 1.16667 13.3731 1.16667 13.8334C1.16667 14.2936 1.53977 14.6667 2 14.6667Z" stroke="#98A2B3" stroke-width="1.66667" stroke-linecap="round" stroke-linejoin="round"/>
</svg>
