<svg width="40" height="40" viewBox="0 0 40 40" fill="none" xmlns="http://www.w3.org/2000/svg">
<g filter="url(#filter0_d_1_26358)">
<rect x="2" y="1" width="36" height="36" rx="8" fill="white"/>
<rect x="2.5" y="1.5" width="35" height="35" rx="7.5" stroke="#D0D5DD"/>
<path d="M27.5 16.5L27.5 11.5M27.5 11.5H22.5M27.5 11.5L20 19M18.3333 11.5H16.5C15.0999 11.5 14.3998 11.5 13.865 11.7725C13.3946 12.0122 13.0122 12.3946 12.7725 12.865C12.5 13.3998 12.5 14.0999 12.5 15.5V22.5C12.5 23.9001 12.5 24.6002 12.7725 25.135C13.0122 25.6054 13.3946 25.9878 13.865 26.2275C14.3998 26.5 15.0999 26.5 16.5 26.5H23.5C24.9001 26.5 25.6002 26.5 26.135 26.2275C26.6054 25.9878 26.9878 25.6054 27.2275 25.135C27.5 24.6002 27.5 23.9001 27.5 22.5V20.6667" stroke="#2671EA" stroke-width="1.66667" stroke-linecap="round" stroke-linejoin="round"/>
</g>
<defs>
<filter id="filter0_d_1_26358" x="0" y="0" width="40" height="40" filterUnits="userSpaceOnUse" color-interpolation-filters="sRGB">
<feFlood flood-opacity="0" result="BackgroundImageFix"/>
<feColorMatrix in="SourceAlpha" type="matrix" values="0 0 0 0 0 0 0 0 0 0 0 0 0 0 0 0 0 0 127 0" result="hardAlpha"/>
<feOffset dy="1"/>
<feGaussianBlur stdDeviation="1"/>
<feColorMatrix type="matrix" values="0 0 0 0 0.0627451 0 0 0 0 0.0941176 0 0 0 0 0.156863 0 0 0 0.05 0"/>
<feBlend mode="normal" in2="BackgroundImageFix" result="effect1_dropShadow_1_26358"/>
<feBlend mode="normal" in="SourceGraphic" in2="effect1_dropShadow_1_26358" result="shape"/>
</filter>
</defs>
</svg>
